<svg viewBox="0 0 136 136">
 <g transform="scale(.26458)">
  <path d="m495.97 232.26c-3.106-1.254-6.349-1.86-9.566-1.86-6.827 0-13.525 2.731-18.449 7.851-24.175 25.122-53.495 45.406-83.772 58.59 12.442-24.875 23.125-52.284 21.649-82.62-0.461-9.429-6.076-17.843-14.609-21.888-3.49-1.656-7.228-2.466-10.957-2.466-5.385 0-10.743 1.698-15.223 5.018-15.488 11.452-51.234 20.932-82.065 24.687 15.59-22.861 24.218-50.108 24.218-78.771 0-77.637-63.164-140.8-140.8-140.8-29.167 0-54.076 7.27-74.035 21.598l-1.118 0.802c-8.294 5.956-15.386 11.042-23.142 19.473l-36.787-8.422c-1.903-0.435-3.823-0.649-5.717-0.649-7.603 0-14.925 3.388-19.849 9.438-6.153 7.561-7.484 17.954-3.422 26.82 7.834 17.118 16.375 36.062 21.077 46.839-19.285 45.705-23.407 89.43-23.407 140.1 0 141.16 114.84 256 256 256s256-114.84 256-256c0-10.445-6.34-19.84-16.026-23.74zm-235.69 237c-127.25 0-222.54-84.945-222.54-212.19 0-50.415 5.0734-85.745 26.671-131.74 0.427-1.152-38.1-61.572-38.1-61.572l57.454 18.059c10.47-14.729 17.237-25.406 29.295-34.067 16.7-11.99 38.412-8.7128 60.112-8.7128 63.625 0 97.313 35.107 97.313 98.731 0 41.25-45.474 95.54-45.474 95.54 0.597 5.897 9.1266 25.031 26.56 25.031 36.574 0 97.328-11.224 123.7-30.731 2.133 43.733-52.019 82.847-40.867 110 10.822 18.247 100.94-22.509 142-65.176 0 127.24-88.865 196.83-216.11 196.83z"/>
 </g>
</svg>
