<svg width="210mm" height="297mm" version="1.1" viewBox="0 0 210 297" xmlns="http://www.w3.org/2000/svg">
 <g transform="matrix(.11224 0 0 .11224 0 -7.8571)" stroke-width="8.9091">
  <g shape-rendering="auto">
   <path d="m380 70h-270c-60.654 0-110 49.346-110 110v130c0 60.654 49.346 110 110 110h270c60.654 0 110-49.346 110-110v-130c0-60.654-49.346-110-110-110zm90 240c0 49.626-40.374 90-90 90h-270c-49.626 0-90-40.374-90-90v-130c0-49.626 40.374-90 90-90h270c49.626 0 90 40.374 90 90z" color="#000000" color-rendering="auto" dominant-baseline="auto" image-rendering="auto" solid-color="#000000" stop-color="#000000" style="font-feature-settings:normal;font-variant-alternates:normal;font-variant-caps:normal;font-variant-east-asian:normal;font-variant-ligatures:normal;font-variant-numeric:normal;font-variant-position:normal;font-variation-settings:normal;inline-size:0;isolation:auto;mix-blend-mode:normal;shape-margin:0;shape-padding:0;text-decoration-color:#000000;text-decoration-line:none;text-decoration-style:solid;text-indent:0;text-orientation:mixed;text-transform:none;white-space:normal"/>
   <path d="m378.77 65.545c57.313-1.877 110.45 45.655 115.09 102.78 1.3211 47.189 0.24215 94.458 0.59248 141.68 1.3138 57.924-47.841 110.94-105.67 114.12-92.913 0.77459-185.86 0.11615-278.79 0.33463-57.924 1.3138-110.94-47.841-114.12-105.67-0.55353-49.174-0.55008-98.403 0-147.58 3.1817-57.825 56.196-106.98 114.12-105.67zm-373.77 103.67c-1.2241 46.483-0.21737 93.041-0.5455 139.55-1.8933 53.857 43.632 103.57 97.431 106.47 91.87 0.71415 183.77 0.10621 275.66 0.30809 53.315 2.4224 103.2-41.568 107.46-94.762 1.2241-46.483 0.21737-93.041 0.5455-139.55 1.8933-53.857-43.632-103.57-97.431-106.47-92.69-0.71423-185.41-0.10615-278.11-0.30809-52.879-0.8963-100.46 42.128-105 94.762zm367.62-83.672c49.375-4.3764 97.444 35.147 101.34 84.818 1.0926 44.467 0.19839 88.998 0.48902 133.49 4.148 50.721-38.563 99.158-89.605 100.48-89.155 0.28674-178.32 0.0418-267.47 0.12326-49.375 4.3764-97.444-35.147-101.34-84.818-1.0933-44.877-0.19789-89.818-0.48902-134.72-3.8455-52.094 42.131-100.8 94.455-99.372zm-347.73 85.714c-0.99487 44.171-0.17413 88.4-0.44204 132.59-4.0323 46.135 34.643 90.436 81.146 91.579 89.005 0.25936 178.02 0.0376 267.02 0.11141 44.942 4.2501 88.988-31.486 92.478-76.804 0.99487-44.171 0.17414-88.4 0.44205-132.59 4.0323-46.135-34.643-90.436-81.146-91.579-91.464-0.25939-182.93-0.03756-274.4-0.11141-42.783-0.78384-81.485 34.207-85.103 76.804z" color="#000000" color-rendering="auto" dominant-baseline="auto" image-rendering="auto" solid-color="#000000" stop-color="#000000" style="font-feature-settings:normal;font-variant-alternates:normal;font-variant-caps:normal;font-variant-east-asian:normal;font-variant-ligatures:normal;font-variant-numeric:normal;font-variant-position:normal;font-variation-settings:normal;inline-size:0;isolation:auto;mix-blend-mode:normal;shape-margin:0;shape-padding:0;text-decoration-color:#000000;text-decoration-line:none;text-decoration-style:solid;text-indent:0;text-orientation:mixed;text-transform:none;white-space:normal"/>
   <path d="m323.85 235.77-120-50c-3.085-1.286-6.611-0.945-9.393 0.911-2.782 1.854-4.453 4.977-4.453 8.32v100c0 3.344 1.671 6.466 4.453 8.32 1.667 1.112 3.601 1.68 5.548 1.68 1.301 0 2.608-0.254 3.845-0.769l120-50c3.727-1.553 6.154-5.194 6.154-9.231s-2.428-7.678-6.154-9.231zm-113.85 44.231v-70l84 35z" color="#000000" color-rendering="auto" dominant-baseline="auto" image-rendering="auto" solid-color="#000000" stop-color="#000000" style="font-feature-settings:normal;font-variant-alternates:normal;font-variant-caps:normal;font-variant-east-asian:normal;font-variant-ligatures:normal;font-variant-numeric:normal;font-variant-position:normal;font-variation-settings:normal;inline-size:0;isolation:auto;mix-blend-mode:normal;shape-margin:0;shape-padding:0;text-decoration-color:#000000;text-decoration-line:none;text-decoration-style:solid;text-indent:0;text-orientation:mixed;text-transform:none;white-space:normal"/>
   <path d="m198.61 180.61c-2.3356 0.22636-4.616 1.021-6.625 2.3613-4.0166 2.6779-6.4356 7.1989-6.4356 12.025v100c0 4.828 2.4201 9.3501 6.4375 12.027 2.4071 1.6051 5.207 2.4277 8.0195 2.4277 1.8808 0 3.7716-0.36816 5.5566-1.1113l120-50c5.375-2.2397 8.8965-7.5214 8.8965-13.344 0-5.8231-3.5207-11.102-8.8945-13.342l-0.00196-0.00195-120-49.998c-2.2279-0.9287-4.6195-1.2713-6.9551-1.0449zm0.85937 8.8652c0.89419-0.08664 1.8108 0.04504 2.668 0.40234l120 50c2.0782 0.86618 3.4121 2.8682 3.4121 5.1191 0 2.2516-1.3331 4.2528-3.4121 5.1191l-120 50c-0.6884 0.28632-1.4103 0.42578-2.1309 0.42578-1.0806 0-2.1498-0.31172-3.0762-0.92969l-0.00195-0.00195c-1.5466-1.0307-2.4688-2.7532-2.4688-4.6133v-100c0-1.8586 0.92274-3.583 2.4688-4.6133l0.00195-0.00195c0.77302-0.51572 1.6449-0.81962 2.5391-0.90625zm6.0801 13.84v83.363l6.168-2.5703 93.869-39.111-100.04-41.682zm8.9102 13.363 67.965 28.318-67.965 28.318v-56.637z" color="#000000" color-rendering="auto" dominant-baseline="auto" image-rendering="auto" solid-color="#000000" stop-color="#000000" style="font-feature-settings:normal;font-variant-alternates:normal;font-variant-caps:normal;font-variant-east-asian:normal;font-variant-ligatures:normal;font-variant-numeric:normal;font-variant-position:normal;font-variation-settings:normal;inline-size:0;isolation:auto;mix-blend-mode:normal;shape-margin:0;shape-padding:0;text-decoration-color:#000000;text-decoration-line:none;text-decoration-style:solid;text-indent:0;text-orientation:mixed;text-transform:none;white-space:normal"/>
  </g>
 </g>
</svg>
