<svg width="210mm" height="297mm" version="1.1" viewBox="0 0 55 55" xmlns="http://www.w3.org/2000/svg">
 <g transform="matrix(1.1203 0 0 .9982 -3.3631 0)">
  <path d="m44.838 37.422h-3e-3c-0.514-0.09-1.008 0.031-1.506 0.369l-0.175 0.119c-0.274 0.187-0.547 0.375-0.831 0.544-1.664 0.992-3.51 1.779-5.645 2.406-2.293 0.676-4.735 1.084-7.256 1.216-1.362 0.071-2.723 0.065-4.044-0.02-1.287-0.081-2.571-0.238-3.816-0.467-2.19-0.402-4.255-1.018-6.14-1.831-1.472-0.633-2.613-1.259-3.588-1.968-0.177-0.129-0.386-0.235-0.602-0.304-0.511-0.167-1.059-0.112-1.502 0.147-0.442 0.258-0.744 0.683-0.851 1.2-0.058 0.283-0.062 0.572-0.013 0.833 0.255 1.368 0.517 2.736 0.784 4.103 0.206 1.056 0.416 2.111 0.625 3.166l0.228 1.151c0.119 0.599 0.354 1.163 0.697 1.676 0.342 0.512 0.772 0.979 1.313 1.427 0.779 0.646 1.711 1.204 2.848 1.708 1.682 0.747 3.59 1.298 5.833 1.687 1.498 0.26 3.046 0.423 4.51 0.474l3.479 0.041 0.204-0.032c1.221-0.05 2.47-0.167 3.713-0.347 1.653-0.24 3.143-0.573 4.556-1.018 1.449-0.457 2.67-0.988 3.733-1.626 0.782-0.469 1.414-0.964 1.931-1.512 0.727-0.768 1.165-1.58 1.34-2.479l0.822-4.148c0.274-1.4 0.543-2.801 0.807-4.203 0.046-0.247 0.053-0.518 0.02-0.78-0.098-0.79-0.675-1.391-1.471-1.532zm-1.318 6.131-0.822 4.15c-0.102 0.524-0.366 0.996-0.831 1.488-0.391 0.414-0.884 0.797-1.506 1.171-0.926 0.556-2.007 1.025-3.304 1.434-1.309 0.412-2.697 0.721-4.242 0.946-1.175 0.171-2.355 0.281-3.52 0.329-0.07 4e-3 -0.14 0.014-0.217 0.029h-2.971c-0.078-0.016-0.156-0.026-0.231-0.029-1.466-0.059-2.926-0.212-4.337-0.457-2.08-0.36-3.834-0.865-5.364-1.544-0.968-0.429-1.747-0.894-2.383-1.42-0.39-0.322-0.692-0.649-0.926-0.998-0.199-0.299-0.33-0.611-0.398-0.955l-0.228-1.15c-0.21-1.053-0.418-2.106-0.624-3.159-0.244-1.251-0.484-2.503-0.714-3.806 1.044 0.728 2.238 1.373 3.731 2.015 2.023 0.872 4.233 1.531 6.57 1.96 1.323 0.243 2.686 0.41 4.052 0.496 1.397 0.088 2.834 0.096 4.273 0.021 2.677-0.139 5.274-0.575 7.717-1.294 2.298-0.675 4.294-1.528 6.106-2.608 0.318-0.19 0.626-0.399 0.933-0.609l5e-3 -4e-3c-0.253 1.331-0.509 2.663-0.769 3.994z"/>
  <path d="m26.809 21.092h-0.0012c-1.3622 0-2.6378 0.51862-3.5906 1.4605-0.92726 0.9162-1.4362 2.1277-1.4344 3.4105 0.0036 2.6749 2.2592 4.8488 5.0303 4.8482h0.0053c1.3379-0.0012 2.5969-0.50751 3.5461-1.4255 0.95274-0.92088 1.4759-2.1429 1.4741-3.4409-0.0047-2.6761-2.2603-4.8529-5.0297-4.8529zm2.7261 7.4594c-0.72641 0.70221-1.6916 1.0899-2.7178 1.091h-0.0042c-2.1182 0-3.843-1.6506-3.8453-3.6806-0.0012-0.97058 0.38512-1.888 1.0884-2.5826 0.72878-0.72033 1.7064-1.1173 2.7522-1.1173h0.0012c2.1164 0 3.8412 1.6535 3.8447 3.6864 5.92e-4 0.97935-0.39638 1.9043-1.1192 2.603z" fill-opacity=".9919" stroke-width=".58858"/>
  <path d="m52.035 7.848c-0.029-0.124-0.061-0.248-0.1-0.365-0.224-0.671-0.627-1.29-1.229-1.894-0.639-0.639-1.418-1.196-2.454-1.755-1.074-0.577-2.247-1.064-3.695-1.534-1.731-0.56-3.577-1.008-5.487-1.33-1.132-0.191-2.247-0.356-3.313-0.489-0.913-0.114-1.87-0.205-2.845-0.269-0.87-0.057-1.741-0.096-2.611-0.135l-1.121-0.05-0.18-0.027-2.84 2e-3 -1.895 0.102c-0.799 0.042-1.599 0.085-2.398 0.138-1.209 0.08-2.503 0.222-3.956 0.434-3.246 0.472-5.871 1.093-8.261 1.956-1.435 0.519-2.581 1.063-3.606 1.714-0.728 0.462-1.311 0.938-1.782 1.455-0.622 0.684-1 1.382-1.153 2.134l-0.107 0.244v0.663l0.401 2.389c0.204 1.303 0.408 2.606 0.622 3.906 0.265 1.615 0.544 3.229 0.823 4.842l2.3409 9.7281c0.087 0.508 0.284 0.998 0.586 1.454 0.364 0.552 0.834 1.054 1.479 1.578 0.883 0.717 1.897 1.333 3.19 1.94 1.549 0.727 3.248 1.314 5.196 1.795 1.54 0.381 3.13 0.664 4.858 0.864 1.697 0.198 3.467 0.298 5.281 0.298 0.532 0 1.067-9e-3 1.605-0.026 2.99-0.096 5.727-0.452 8.368-1.089 2.3-0.555 4.271-1.259 6.024-2.152 1.032-0.526 1.891-1.078 2.627-1.686 0.447-0.37 0.818-0.743 1.135-1.14 0.469-0.588 0.771-1.267 0.99006-1.934 0.167-1 1.8841-10.165 1.8841-10.165 0.218-1.261 0.435-2.524 0.647-3.786 0.197-1.174 0.395-2.349 0.585-3.524 0.099-0.61 0.191-1.221 0.284-1.832l0.102-0.677 0.067-1.406zm-2.085 2.156c-0.091 0.604-0.182 1.207-0.28 1.811-0.189 1.171-0.386 2.342-0.583 3.512-0.211 1.259-0.428 2.519-0.645 3.777l-1.8566 9.997c-0.19356 0.51103-0.35256 0.87103-0.61156 1.195-0.23 0.289-0.506 0.565-0.846 0.846-0.622 0.514-1.361 0.987-2.26 1.446-1.611 0.821-3.438 1.472-5.584 1.99-2.507 0.605-5.112 0.943-7.963 1.035-2.277 0.073-4.494-0.015-6.591-0.259-1.644-0.191-3.151-0.458-4.609-0.819-1.818-0.449-3.397-0.994-4.826-1.665-1.143-0.536-2.026-1.071-2.779-1.682-0.481-0.392-0.822-0.75-1.072-1.129-0.15-0.227-0.243-0.452-0.283-0.688l-2.3419-9.7331c-0.278-1.607-0.556-3.215-0.82-4.825-0.213-1.296-0.417-2.594-0.62-3.892l-0.315-2c-0.013-0.08-0.033-0.158-0.062-0.247v-0.076c0.023-0.062 0.043-0.134 0.057-0.214 0.071-0.41 0.287-0.803 0.682-1.238 0.353-0.388 0.79-0.742 1.373-1.112 0.899-0.57 1.92-1.054 3.214-1.521 2.261-0.816 4.761-1.406 7.87-1.858 1.401-0.204 2.645-0.341 3.802-0.418 0.79-0.053 1.58-0.094 2.37-0.136l1.074-0.058 3.405-0.043c0.065 0.01 0.13 0.019 0.198 0.023l1.164 0.053c0.857 0.038 1.714 0.076 2.57 0.133 0.936 0.061 1.854 0.148 2.729 0.257 1.038 0.129 2.124 0.29 3.228 0.476 1.814 0.307 3.565 0.731 5.203 1.261 1.331 0.431 2.399 0.874 3.362 1.393 0.859 0.463 1.491 0.911 1.988 1.408 0.384 0.384 0.622 0.738 0.749 1.118 0.021 0.061 0.034 0.125 0.049 0.189l7e-3 0.708z"/>
  <path d="m26.818 19.571h-0.0017c-1.779 0-3.4451 0.72954-4.6894 2.0545-1.211 1.2888-1.8758 2.993-1.8734 4.7975 0.0047 3.7628 2.9506 6.8208 6.5698 6.82h0.0069c1.7473-0.0018 3.3917-0.71391 4.6314-2.0052 1.2443-1.2954 1.9276-3.0144 1.9253-4.8403-0.0061-3.7645-2.9521-6.8266-6.569-6.8266zm3.5604 10.493c-0.94871 0.9878-2.2093 1.5331-3.5496 1.5347h-0.0056c-2.7664 0-5.0191-2.3219-5.0221-5.1775-0.0017-1.3653 0.50299-2.6558 1.4215-3.6329 0.95181-1.0133 2.2286-1.5718 3.5944-1.5718h0.0016c2.7641 0 5.0167 2.326 5.0214 5.1857 7.73e-4 1.3776-0.51769 2.6788-1.4618 3.6617z" fill-opacity=".9919" stroke-width=".79778"/>
  <path d="m47.774 9.0016c-0.63048 0.36186-0.99399 0.57314-1.3722 0.76306-2.2157 1.1148-4.6738 1.9992-7.5167 2.7039-3.0533 0.75969-6.305 1.2182-9.6619 1.3665-1.8136 0.0798-3.6259 0.07304-5.3849-0.02247-1.7137-0.09104-3.4234-0.26747-5.0812-0.52482-2.9162-0.45176-5.6659-1.144-8.1759-2.0577-1.9601-0.71136-3.4794-1.4149-4.7777-2.2116-0.23569-0.14497-0.51398-0.26409-0.8016-0.34164-0.68043-0.18767-1.4101-0.12586-2 0.1652 10.495 12.326 42.76 6.4073 45.684 2.2364 0.69051-0.98496-0.10768-1.9952-0.91178-2.0768z" stroke-width="1.2233"/>
 </g>
</svg>
