<svg width="210mm" height="297mm" version="1.1" viewBox="0 0 55 55" xmlns="http://www.w3.org/2000/svg">
 <path d="m27.5 0-27.5 17.01v26.034c0 3.8352 3.0139 6.9557 6.7181 6.9557h41.564c3.7042 0 6.7181-3.1205 6.7181-6.9557v-26.034zm20.433 17.924-20.166 13.019-0.10446 0.05824c-0.0168 0.0091-0.03287 0.0174-0.05552 0.02647l-0.02411 0.0061c-0.05698 0.01437-0.08327 0.01513-0.084 0.01513 0 0-0.02703-7.57e-4 -0.09788-0.01815l-0.01242-3e-3c-0.01826-0.0076-0.03798-0.0174-0.06428-0.03101-0.02849-0.01664-0.05771-0.03328-0.08693-0.04916l-20.17-13.024 20.433-12.639zm0.34843 27.539h-41.564c-1.2878 0-2.3353-1.0845-2.3353-2.4171v-21.507l20.591 13.294c0.07524 0.04916 0.15121 0.09303 0.23083 0.13538 0.0431 0.0242 0.08546 0.04765 0.12564 0.06807 0.31995 0.17092 0.64574 0.30101 0.95326 0.3842l0.16947 0.0416c0.35501 0.08319 0.70636 0.12555 1.049 0.12555 0.3404 0 0.69395-0.04311 1.0511-0.12782l0.14609-0.03479c0.3236-0.08697 0.65012-0.21782 0.96349-0.38572 0.04529-0.02345 0.08985-0.04765 0.1366-0.07412l20.818-13.428v21.508c0 1.3341-1.0475 2.4187-2.3353 2.4187z"/>
</svg>
