<svg width="210mm" height="297mm" version="1.1" viewBox="0 0 55 50" xmlns="http://www.w3.org/2000/svg">
 <path d="m33.531 46.731c-1.2657 0-0.96875 0.01342-0.96875-1.2522v-5.9583c0.144-1.386-0.30562-2.7682-1.2375-3.8042-1.2629-1.3697-0.45046-3.5939 1.3979-3.8271 5.5917-0.66458 11.315-2.3576 11.315-12.051 0.0018-1.8102-1.3829-6.6043-2.3859-8.1113-0.92548-1.3873-1.2633-3.0849-0.93958-4.7208 0.20656-1.0672 0.20656-2.1641 0-3.2312-1.716 0.5802-3.3317 1.4228-4.7896 2.4979-0.55812 0.39634-1.2642 0.52242-1.925 0.34375-4.1357-1.1686-9.8372-1.1686-13.973 0-0.6608 0.17867-1.3669 0.05259-1.925-0.34375-1.4668-1.0875-4.0446-2.12-5.7804-2.6869-0.21793 1.0661-0.40692 4.0551-0.18899 5.1211 0.3004 1.6565 0.0417 3.0816-0.89092 4.4832-0.99857 1.5176-1.9102 3.9552-1.9134 5.7719 0 8.9146 4.2138 12.243 10.676 13.068 0.86252 0.10703 1.8738 0.03132 2.1626 0.85104 0.27142 0.79438 0.08679 1.6736-0.48125 2.2917-0.90113 0.96325-1.3582 2.2596-1.2604 3.575v6.1646c0 3.0556-3.0714 2.5831-3.0714-0.47247v-1.3062c-4.5737 0.52599-9.1071-1.2719-12.077-4.7896-0.75166-0.83314-1.6535-1.5173-2.6583-2.0167-2.9639-0.76389-2.007-3.9813 0.95685-3.2174 1.7629 0.64221 3.9474 3.0842 5.2448 4.4396 2.241 2.3412 4.1109 2.9854 8.465 2.1604-0.07656-1.2304 0.10292-3.6917 0.52708-4.8493-4.7208-1.1917-11.458-4.5833-11.458-16.042-6e-3 -2.7142 0.79133-5.3694 2.2917-7.6312 0.27867-0.41753 0.3854-0.92653 0.29792-1.4208-0.46308-2.4737-0.20043-5.0285 0.75625-7.3563 0.26317-0.62837 0.79227-1.1071 1.4437-1.3062 0.77917-0.22917 3.575-0.6875 8.8688 2.75 4.2854-1.0312 8.7542-1.0312 13.04 0 5.2938-3.4375 8.0896-3.0021 8.8458-2.75 0.65148 0.19918 1.1806 0.67788 1.4438 1.3062 0.95858 2.3353 1.2212 4.898 0.75625 7.3792-0.09472 0.4516-0.0039 0.92232 0.25208 1.3062 1.5047 2.2683 2.3022 4.9322 2.2917 7.6542 0 11.619-6.6917 14.988-11.458 16.042 0.4199 1.2297 0.59128 2.5306 0.50417 3.8271v5.8208c0.0022 1.2138-0.94251 2.2188-2.1542 2.2917z"/>
</svg>
