<svg width="210mm" height="297mm" version="1.1" viewBox="0 0 55 60" xmlns="http://www.w3.org/2000/svg">
 <g transform="scale(1.0512 .95125)" stroke-width="1.9285" style="font-variant-caps:normal;font-variant-east-asian:normal;font-variant-ligatures:normal;font-variant-numeric:normal" aria-label="in">
  <path d="m-0.12711 8.4872c0-1.13 0.37667-2.0717 1.13-2.825 0.75333-0.77845 1.6699-1.1677 2.7497-1.1677 1.13 0 2.0717 0.38922 2.825 1.1677 0.77845 0.77845 1.1677 1.7201 1.1677 2.825 0 1.13-0.38922 2.0717-1.1677 2.825-0.75333 0.75333-1.695 1.13-2.825 1.13-1.0798 0-1.9963-0.36411-2.7497-1.0923-0.75333-0.75333-1.13-1.7076-1.13-2.8627zm0.95579 49.33v-39.588h5.9513v39.588z" style="font-variant-caps:normal;font-variant-east-asian:normal;font-variant-ligatures:normal;font-variant-numeric:normal"/>
  <path d="m46.599 57.537h-5.989v-22.6c0-8.5629-3.5308-12.695-9.7835-12.695-3.2142 0-5.4841 1.0689-7.6185 3.5047-2.1093 2.4107-3.164 5.4868-3.164 9.2283v22.562h-5.989l0.22472-26.575c0.88691-5.4973 3.0789-7.6581 5.5684-10.173 1.5996-1.616 5.0796-3.5949 9.7461-3.6943 4.3434-0.09246 9.6688 1.3937 12.371 3.9823 2.7022 2.5887 4.6339 6.9792 4.6339 12.278z" style="font-variant-caps:normal;font-variant-east-asian:normal;font-variant-ligatures:normal;font-variant-numeric:normal"/>
 </g>
</svg>
